<?xml version="1.0" encoding="UTF-8"?>
<svg width="120" height="120" viewBox="0 0 120 120" fill="none" xmlns="http://www.w3.org/2000/svg">
  <defs>
    <linearGradient id="g1" x1="0" y1="0" x2="1" y2="1">
      <stop offset="0%" stop-color="#007bff" />
      <stop offset="100%" stop-color="#0056b3" />
    </linearGradient>
  </defs>
  <rect x="6" y="6" width="108" height="108" rx="18" fill="url(#g1)" />
  <g transform="translate(20,22)" fill="#fff">
    <path d="M40 6c-9.94 0-18 4.477-18 10v28c0 5.523 8.06 10 18 10s18-4.477 18-10V16c0-5.523-8.06-10-18-10zm0 4c7.18 0 14 3.033 14 6s-6.82 6-14 6-14-3.033-14-6 6.82-6 14-6z" opacity="0.98"/>
    <path d="M8 52h50v4H8z" opacity="0.08"/>
    <circle cx="15" cy="34" r="3" opacity="0.95" />
    <circle cx="33" cy="34" r="3" opacity="0.95" />
  </g>
  <text x="60" y="106" text-anchor="middle" font-family="Segoe UI, Roboto, Helvetica, Arial, sans-serif" font-size="11" fill="#ffffff" opacity="0.95">SchoolAdmin</text>
</svg>